<svg xmlns="http://www.w3.org/2000/svg" viewBox="0 0 175.52 56.33"><defs><style>.cls-1{fill:#bd1f3e;}.cls-2{fill:#fff;}</style></defs><title>Asset 5</title><g id="Layer_2" data-name="Layer 2"><g id="Layer_1-2" data-name="Layer 1"><rect class="cls-1" width="175.52" height="56.33"/><path class="cls-2" d="M49.87,43A3.09,3.09,0,1,1,53,46.06,3,3,0,0,1,49.87,43m5.22,0A2.14,2.14,0,1,0,53,45.22,2.11,2.11,0,0,0,55.09,43"/><path class="cls-2" d="M57.82,43a3,3,0,0,1,3.07-3.06,2.69,2.69,0,0,1,2.4,1.19l-.71.51a1.91,1.91,0,0,0-1.69-.86,2.23,2.23,0,0,0,0,4.46,2,2,0,0,0,1.77-.94l.72.5a2.85,2.85,0,0,1-2.49,1.28A3,3,0,0,1,57.82,43"/><polygon class="cls-2" points="65.67 39.99 66.6 39.99 66.6 42.66 69.48 42.66 69.48 39.99 70.41 39.99 70.41 45.98 69.48 45.98 69.48 43.49 66.6 43.49 66.6 45.98 65.67 45.98 65.67 39.99"/><rect class="cls-2" x="73.3" y="39.99" width="0.92" height="5.99"/><path class="cls-2" d="M81.23,40h2.13a1.56,1.56,0,0,1,1.78,1.56,1.24,1.24,0,0,1-.89,1.26,1.38,1.38,0,0,1,1.17,1.47A1.68,1.68,0,0,1,83.51,46H81.23Zm2.08,2.47c.63,0,.91-.33.91-.82s-.27-.83-.93-.83H82.17v1.65Zm.15,2.7a.9.9,0,0,0,1-.95c0-.59-.37-1-1.07-1H82.17v1.91Z"/><path class="cls-2" d="M87.15,43a3.09,3.09,0,1,1,3.09,3.08A3,3,0,0,1,87.15,43m5.22,0a2.14,2.14,0,1,0-2.13,2.24A2.11,2.11,0,0,0,92.37,43"/><polygon class="cls-2" points="95.38 39.99 96.31 39.99 96.31 45.16 99.07 45.16 99.07 45.98 95.38 45.98 95.38 39.99"/><polygon class="cls-2" points="115.72 40.81 113.94 40.81 113.94 39.99 118.43 39.99 118.43 40.81 116.65 40.81 116.65 45.98 115.72 45.98 115.72 40.81"/><polygon class="cls-2" points="122.22 40.81 120.44 40.81 120.44 39.99 124.93 39.99 124.93 40.81 123.15 40.81 123.15 45.98 122.22 45.98 122.22 40.81"/><polygon class="cls-2" points="46.33 42.64 48.44 39.99 47.39 39.99 45.03 42.92 45.03 39.99 44.09 39.99 44.09 45.98 45.03 45.98 45.03 44.16 45.7 43.34 47.55 45.98 48.66 45.98 46.33 42.64"/><path class="cls-2" d="M103.68,40a3,3,0,1,0,0,6h2.2V43H105v2.22h-1.21a2.18,2.18,0,1,1,0-4.36h2.14V40Z"/><path class="cls-2" d="M110.42,39.81,107.81,46h.9l.44-1.09h2.54l.44,1.09h1Zm-1,4.3,1-2.38.94,2.38Z"/><polygon class="cls-2" points="130.99 39.99 129.51 42.83 127.99 39.99 126.94 39.99 129.03 43.79 129.03 45.98 129.96 45.98 129.96 43.72 131.95 39.99 130.99 39.99"/><rect class="cls-2" x="88.99" y="10.25" width="0.71" height="20.43"/><path class="cls-2" d="M76.42,15.32h-3.1V25.57h3.1c3.31,0,5.42-2,5.42-5.08s-2.11-5.17-5.42-5.17m-.1,9H74.75V16.57h1.57c2.78,0,4.07,1.66,4.07,3.92s-1.29,3.83-4.07,3.83m-10.5-1.85-6.75-7.36V25.57H60.4v-7l6.75,7.36V15.32H65.82Zm-50.43-2c0,3.05,2.12,5.08,5.42,5.08H24.5V20.31H23.07v4H20.91c-2.78,0-4.07-1.55-4.07-3.83s1.29-3.92,4.07-3.92H24.5V15.32H20.81c-3.3,0-5.42,2.12-5.42,5.17m23.16-2h0c0-2.25-1.54-3.17-4.24-3.17h-3.1V25.57h1.42v-9h1.62c2.07,0,2.86.46,2.86,1.92h0c0,1.46-.79,1.83-2.86,1.83h-1l4.26,5.24h1.79s-3.51-4.1-3.48-4.11c1.73-.29,2.7-1.19,2.7-3m5.76,7.08h1.38l1.09-2.41h4.54l1.07,2.41h1.49L49.08,15.1Zm3.13-3.87,1.63-3.59,1.6,3.59Z"/><path class="cls-2" d="M137.61,16.57h3.72v9h1.45v-9h3.62V15.32h-8.79Zm13.6-1.25v1.25H155v9h1.44v-9h3.79V15.32ZM115.7,20.53l-3.37-5.22h-1.6l4.2,6.7v3.55h1.44V22l4.12-6.66H119Zm8,5h1.41l1.14-2.29h5.19l1.12,2.29H134L128.84,15ZM127,21.8,128.84,18l1.85,3.78Z"/><polygon class="cls-2" points="104.07 20.04 98.65 20.04 98.65 15.31 97.2 15.31 97.2 25.56 98.65 25.56 98.65 21.3 104.07 21.3 104.07 25.56 105.51 25.56 105.51 15.31 104.07 15.31 104.07 20.04"/></g></g></svg>